# xmcd
#
# Track frame offsets:
#	150
#	16302
#	31345
#	46127
#	59501
#	72551
#	91677
#	106873
#	121066
#	138662
#	156470
#	171638
#	189425
#
# Disc length: 2679 seconds
#
# Revision: 0
# Processed by: cddbd v1.5.2PL0 Copyright (c) Steve Scherf et al.
# Submitted via: EasyCDDAExtractor 11.5.0.1
#
DISCID=b20a750d
DTITLE=Claude Hay - Kiss The Sky
DYEAR=2007
DGENRE=Blues
TTITLE0=Smile
TTITLE1=Kiss The Sky
TTITLE2=Gold
TTITLE3=Commercial Fallout
TTITLE4=Sun
TTITLE5=Fade
TTITLE6=$5.99 Toaster
TTITLE7=Inside
TTITLE8=Fly
TTITLE9=Hope
TTITLE10=Be Alright
TTITLE11=Grow Up
TTITLE12=Inside (Chilled)
EXTD=
EXTT0=
EXTT1=
EXTT2=
EXTT3=
EXTT4=
EXTT5=
EXTT6=
EXTT7=
EXTT8=
EXTT9=
EXTT10=
EXTT11=
EXTT12=
PLAYORDER=
